<svg xmlns="http://www.w3.org/2000/svg" viewBox="0 0 1200 720" role="img" aria-label="Editorial fixed city policy image">
  <rect width="1200" height="720" fill="#7A1E1E"/>
  <path d="M0 520 C220 420 370 450 560 360 C760 265 930 270 1200 170 L1200 720 L0 720 Z" fill="#222222" opacity=".42"/>
  <g stroke="#F2EDE4" stroke-opacity=".38" fill="none">
    <path d="M80 650 L515 95 L970 650"/>
    <path d="M200 650 L545 140 L880 650"/>
    <path d="M0 560 H1200M0 470 H1200M0 380 H1200M0 290 H1200"/>
    <path d="M120 130 H1040M120 180 H1040M120 230 H1040"/>
  </g>
  <g fill="#F2EDE4" opacity=".42">
    <rect x="118" y="330" width="58" height="250"/><rect x="195" y="270" width="44" height="310"/><rect x="270" y="360" width="70" height="220"/>
    <rect x="880" y="250" width="52" height="330"/><rect x="955" y="305" width="68" height="275"/><rect x="1046" y="220" width="46" height="360"/>
  </g>
  <rect x="72" y="72" width="470" height="84" fill="#222222" opacity=".72"/>
  <text x="96" y="125" fill="#F2EDE4" font-family="Georgia, serif" font-size="36" letter-spacing="4">EDITORIAL</text>
</svg>
